<?xml version="1.0" encoding="iso-8859-1"?>
<!-- Generator: Adobe Illustrator 16.0.0, SVG Export Plug-In . SVG Version: 6.00 Build 0)  -->
<!DOCTYPE svg PUBLIC "-//W3C//DTD SVG 1.1//EN" "http://www.w3.org/Graphics/SVG/1.1/DTD/svg11.dtd">
<svg xmlns="http://www.w3.org/2000/svg" xmlns:xlink="http://www.w3.org/1999/xlink" version="1.1" id="Capa_1" x="0px" y="0px" width="512px" height="512px" viewBox="0 0 73.92 73.92" style="enable-background:new 0 0 73.92 73.92;" xml:space="preserve">
<g>
	<g>
		<path d="M36.96,0C16.576,0,0,16.576,0,36.96s16.576,36.96,36.96,36.96s36.96-16.576,36.96-36.96S57.344,0,36.96,0z M21.952,53.76    h-4.48v-22.4h4.48V53.76z M21.952,29.12h-4.48v-4.479h4.48V29.12z M30.688,56h-4.48V33.601h4.48V56z M30.688,31.358h-4.48V26.88    h4.48V31.358z M39.2,49.28h-4.48v-22.4h4.48V49.28z M39.2,24.642h-4.48v-4.48h4.48V24.642z M47.712,47.04h-4.479V24.642h4.479    V47.04z M47.712,22.399h-4.479V17.92h4.479V22.399z M56.448,53.76h-4.48v-22.4h4.48V53.76z M56.448,29.12h-4.48v-4.479h4.48V29.12    z" fill="#FFFFFF"/>
	</g>
</g>
<g>
</g>
<g>
</g>
<g>
</g>
<g>
</g>
<g>
</g>
<g>
</g>
<g>
</g>
<g>
</g>
<g>
</g>
<g>
</g>
<g>
</g>
<g>
</g>
<g>
</g>
<g>
</g>
<g>
</g>
</svg>
